<svg width="64" height="64" viewBox="0 0 64 64" xmlns="http://www.w3.org/2000/svg">
  <defs>
    <linearGradient id="fGrad1" x1="0%" y1="0%" x2="100%" y2="100%">
      <stop offset="0%" style="stop-color:#10b981"/>
      <stop offset="100%" style="stop-color:#059669"/>
    </linearGradient>
    <linearGradient id="fGrad2" x1="0%" y1="100%" x2="100%" y2="0%">
      <stop offset="0%" style="stop-color:#34d399"/>
      <stop offset="100%" style="stop-color:#10b981"/>
    </linearGradient>
  </defs>
  
  <!-- Hexagon -->
  <polygon points="32,6 54,18 54,42 32,54 10,42 10,18" 
           fill="url(#fGrad1)" stroke="#047857" stroke-width="2"/>
  
  <!-- Geometric leaf -->
  <polygon points="32,22 22,28 26,35 32,38" fill="url(#fGrad2)"/>
  <polygon points="32,22 42,28 38,35 32,38" fill="#34d399"/>
  <polygon points="32,16 29,22 32,24 35,22" fill="#6ee7b7"/>
  <polygon points="30,38 34,38 33,46 31,46" fill="#047857"/>
  
  <!-- AI diamond -->
  <polygon points="32,50 37,48 32,46 27,48" fill="#3b82f6" stroke="#1d4ed8" stroke-width="0.8"/>
  <circle cx="25" cy="48" r="1" fill="#60a5fa"/>
  <circle cx="39" cy="48" r="1" fill="#60a5fa"/>
</svg>
